<svg id="Warstwa_1" data-name="Warstwa 1" xmlns="http://www.w3.org/2000/svg" viewBox="0 0 850.39 340.16"><defs><style>.cls-1{fill:#fff;}</style></defs><title>kamil_balda_logo</title><path class="cls-1" d="M220.76,176.6V166a13.27,13.27,0,0,0,4.86-1,7,7,0,0,0,2.82-2.67,12.28,12.28,0,0,0,1.64-4.71,52.78,52.78,0,0,0,.35-7.37q0-8.57.79-11.94a10.92,10.92,0,0,1,2.87-5.43,14.4,14.4,0,0,1,6-3.25,32.73,32.73,0,0,1,8.48-.79H251v10.55c-3.27,0-5.36.18-6.29.55a4,4,0,0,0-2,1.68,8,8,0,0,0-.67,3.86c0,1.86-.13,5.37-.39,10.55a26.62,26.62,0,0,1-1.15,7.09,14.54,14.54,0,0,1-2.36,4.48,18.82,18.82,0,0,1-4.4,3.67,15.28,15.28,0,0,1,4.26,3.51,14,14,0,0,1,2.54,4.88,33.26,33.26,0,0,1,1.15,7.68c.21,4.89.31,8,.31,9.36a8.19,8.19,0,0,0,.71,4.06,4.31,4.31,0,0,0,2.14,1.74q1.43.6,6.2.6v10.6h-2.34a33.85,33.85,0,0,1-9.14-.95,12.33,12.33,0,0,1-5.36-3.16,11.12,11.12,0,0,1-2.94-5.45,50,50,0,0,1-.75-10.22q0-8.13-.71-10.56a9.27,9.27,0,0,0-2.93-5Q224.83,176.81,220.76,176.6Z"/><path class="cls-1" d="M285.89,194.7a14.31,14.31,0,0,1-1.29-4.29,15.41,15.41,0,0,1-12.05,5.17,16.93,16.93,0,0,1-11.63-4.06,13.05,13.05,0,0,1-4.62-10.24q0-7.6,5.63-11.66t16.27-4.11h5.88v-2.73a7.88,7.88,0,0,0-1.7-5.3q-1.71-2-5.37-2A7.64,7.64,0,0,0,272,157a5.25,5.25,0,0,0-1.84,4.24H257.36a12.88,12.88,0,0,1,2.56-7.68,17,17,0,0,1,7.24-5.54,26.4,26.4,0,0,1,10.51-2q8.83,0,14,4.44T296.88,163v20.71q0,6.79,1.9,10.29v.75Zm-10.56-8.88a11,11,0,0,0,5.21-1.26,8.26,8.26,0,0,0,3.54-3.37V173h-4.77q-9.58,0-10.2,6.63l-.05.75a5.11,5.11,0,0,0,1.68,3.93A6.52,6.52,0,0,0,275.33,185.82Z"/><path class="cls-1" d="M348.23,177.35l6.27-30.43h12.32L354.63,194.7H344l-9.05-30.07-9.06,30.07H315.2L303,146.92h12.32l6.22,30.38,8.74-30.38h9.23Z"/><path class="cls-1" d="M414.68,177.35,421,146.92h12.32L421.08,194.7H410.4l-9-30.07-9.06,30.07H381.65l-12.18-47.78h12.32L388,177.3l8.74-30.38H406Z"/><path class="cls-1" d="M481.13,177.35l6.27-30.43h12.32L487.53,194.7H476.85l-9.05-30.07-9.06,30.07H448.1l-12.18-47.78h12.32l6.22,30.38,8.74-30.38h9.23Z"/><path class="cls-1" d="M504.05,170.37a28.39,28.39,0,0,1,2.73-12.67,20.11,20.11,0,0,1,7.88-8.61,23,23,0,0,1,12-3.05q9.66,0,15.78,5.92T549.21,168l.09,3.27q0,11-6.13,17.64t-16.47,6.64q-10.34,0-16.5-6.62t-6.15-18Zm12.76.91q0,6.81,2.56,10.41a9.2,9.2,0,0,0,14.57,0q2.59-3.55,2.6-11.38,0-6.67-2.6-10.35a8.46,8.46,0,0,0-7.33-3.67,8.3,8.3,0,0,0-7.24,3.65Q516.8,163.63,516.81,171.28Z"/><path class="cls-1" d="M574.51,175.54l-4.59,4.59V194.7H557.16V126.88h12.76v37.57l2.47-3.18,12.24-14.35H600l-17.27,19.92,18.77,27.86H586.79Z"/><path class="cls-1" d="M633.15,194.7a14,14,0,0,1-1.28-4.29,15.43,15.43,0,0,1-12.06,5.17,17,17,0,0,1-11.63-4.06,13,13,0,0,1-4.61-10.24q0-7.6,5.63-11.66t16.27-4.11h5.87v-2.73a7.88,7.88,0,0,0-1.7-5.3q-1.7-2-5.37-2a7.65,7.65,0,0,0-5,1.54,5.28,5.28,0,0,0-1.83,4.24H604.63a12.82,12.82,0,0,1,2.56-7.68,16.92,16.92,0,0,1,7.24-5.54,26.37,26.37,0,0,1,10.51-2q8.82,0,14,4.44T644.14,163v20.71q0,6.79,1.9,10.29v.75Zm-10.55-8.88a11,11,0,0,0,5.21-1.26,8.23,8.23,0,0,0,3.53-3.37V173h-4.77q-9.59,0-10.2,6.63l0,.75a5.13,5.13,0,0,0,1.67,3.93A6.53,6.53,0,0,0,622.6,185.82Z"/><path class="cls-1" d="M652,170.46q0-11.18,5-17.8A16.27,16.27,0,0,1,670.68,146a14.63,14.63,0,0,1,11.52,5.21V126.88H695V194.7H683.48l-.61-5.08a15,15,0,0,1-12.28,6,16.21,16.21,0,0,1-13.53-6.64Q652,182.3,652,170.46Zm12.76.95q0,6.72,2.34,10.3a7.61,7.61,0,0,0,6.8,3.58q5.91,0,8.34-5V161.41q-2.38-5-8.25-5Q664.71,156.42,664.72,171.41Z"/><path class="cls-1" d="M702.91,170.37a28.26,28.26,0,0,1,2.74-12.67,20,20,0,0,1,7.88-8.61A23,23,0,0,1,725.47,146q9.67,0,15.79,5.92T748.08,168l.09,3.27q0,11-6.14,17.64t-16.47,6.64q-10.34,0-16.49-6.62t-6.16-18Zm12.76.91q0,6.81,2.56,10.41a9.2,9.2,0,0,0,14.57,0q2.61-3.55,2.61-11.38,0-6.67-2.61-10.35a8.45,8.45,0,0,0-7.33-3.67,8.31,8.31,0,0,0-7.24,3.65Q715.67,163.63,715.67,171.28Z"/><path class="cls-1" d="M783.31,176.6a13,13,0,0,0-4.85,1,6.93,6.93,0,0,0-2.81,2.67,12.93,12.93,0,0,0-1.65,4.7,50.45,50.45,0,0,0-.36,7.33q0,8.56-.77,12a10.77,10.77,0,0,1-2.85,5.46,14.22,14.22,0,0,1-6.09,3.24,32.64,32.64,0,0,1-8.48.8h-2.34v-10.6q4.73,0,6.18-.6a4.27,4.27,0,0,0,2.15-1.72,7.93,7.93,0,0,0,.7-3.82c0-1.79.14-5.22.38-10.28a26.27,26.27,0,0,1,1.19-7.36,15,15,0,0,1,2.58-4.68,15.38,15.38,0,0,1,4.13-3.37,18.37,18.37,0,0,1-4.77-4.15,17.72,17.72,0,0,1-2.82-7.42,130.87,130.87,0,0,1-.71-13.6,11.82,11.82,0,0,0-.6-4.42,3.68,3.68,0,0,0-2-1.7q-1.44-.58-6.43-.59V128.87h2.34a34.43,34.43,0,0,1,9.14.92,12,12,0,0,1,5.35,3.16,11.51,11.51,0,0,1,2.93,5.47,48.35,48.35,0,0,1,.77,10.23q0,8.07.67,10.55a9.17,9.17,0,0,0,3,5.05,10.9,10.9,0,0,0,6,1.75Z"/><path class="cls-1" d="M126.87,259.61A60.76,60.76,0,0,1,107,256.26C81.2,247.37,61.21,223,66.54,184.6l12.79,7.73c-1.9,24.33,10.14,44.73,31.9,51.71a48.7,48.7,0,0,0,36.58-2.23,47.62,47.62,0,0,0,24.3-27.45c2.46-7.15,4.76-35.22,1-83.24-1-13.27-5.52-18.19-10.8-20.64l14.83-3c4.18,3.42,7.64,7.15,8.85,22.67.22,2.78,5.25,68.36-1.68,88.46a60.9,60.9,0,0,1-57.45,41Z"/><path class="cls-1" d="M81.43,179.91,78.66,174a43.41,43.41,0,0,1-3-21.84C76.91,141,83,124.77,104.93,111.08l5.48-3.42,6.84,11-5.48,3.42c-23.35,14.56-24.47,31.55-23,40.43a152.9,152.9,0,0,1,16.22-4.64c7.53-1.84,15.32-3.74,23.71-7.74,20.44-9.74,5.75-48.88,5.6-49.28l-2.05-5.2,4.86-2.77c16.65-9.48,36.16-11.24,37-11.31l6.44-.54,1.1,12.87-6.43.55a93.25,93.25,0,0,0-27,7.25,101.44,101.44,0,0,1,4,20.25c2.14,24.84-8.6,35.38-18,39.85-9.59,4.56-18,6.63-26.2,8.63-7.15,1.75-13.91,3.4-20.69,6.67Z"/><path class="cls-1" d="M148.78,174.89l-15.15,4.74-.32.29,1,.48a19.43,19.43,0,1,1-27.15,21.84l-.09-.4-12.26-4.71-1-.33V198a32.37,32.37,0,1,0,55-23.14Z"/></svg>