<?xml version="1.0" encoding="utf-8"?>
<!-- Generator: Adobe Illustrator 22.1.0, SVG Export Plug-In . SVG Version: 6.00 Build 0)  -->
<svg version="1.1" id="Warstwa_1" xmlns="http://www.w3.org/2000/svg" xmlns:xlink="http://www.w3.org/1999/xlink" x="0px" y="0px"
	 viewBox="0 0 547.7 85.6" style="enable-background:new 0 0 547.7 85.6;" xml:space="preserve">
<style type="text/css">
	.st0{fill:#FF4040;}
</style>
<g>
	<path class="st0" d="M21.9,10.1c0,6.1-4.7,10.1-10.9,10.1S0,16.2,0,10.1S4.7,0,10.9,0S21.9,4,21.9,10.1z M2.2,84.2V27.5h17.5v56.7
		H2.2z"/>
	<path class="st0" d="M67.5,84.2v-40H49.6v40H32.1V27.5h53v56.7H67.5z"/>
	<path class="st0" d="M103,44h-9.7V27.5h9.7V4.8h34.6v16.5h-17.1v6.2h17.1V44h-17.1v40.2H103V44z"/>
	<path class="st0" d="M203.2,55.9c0,17.1-13.1,29.7-29.7,29.7c-16.6,0-29.7-12.7-29.7-29.7c0-17.1,13.3-29.7,29.7-29.7
		S203.2,38.8,203.2,55.9z M161.5,55.9c0,7.9,5.3,13,12,13c6.8,0,12-5.1,12-13c0-7.8-5.2-13-12-13C166.7,42.9,161.5,48,161.5,55.9z"
		/>
	<path class="st0" d="M364.3,27.5v56.7h-17.5v-40h-18.3v40h-17.5V4.8h17.5v22.7H364.3z"/>
	<path class="st0" d="M416.2,33.9v-6.4h17.5v56.7h-17.5v-6.1c-3.6,4.4-8.9,7.5-16.1,7.5c-14.4,0-25.6-12.2-25.6-29.7
		c0-17.6,11.3-29.7,25.5-29.7C407.3,26.2,412.5,29.3,416.2,33.9z M392.3,55.9c0,7.9,5.3,13,12,13c6.8,0,12-5.1,12-13
		c0-7.8-5.2-13-12-13C397.4,42.9,392.3,48,392.3,55.9z"/>
	<path class="st0" d="M463.6,44.3v40h-17.5V27.5h36.8v16.7H463.6z"/>
	<path class="st0" d="M518.3,26.2c14.5,0,27.2,9.6,29.1,25.1c0.4,3.4,0.2,6-0.1,8h-40.4c0.6,7.2,5.4,11.5,12.1,11.5
		c4.9,0,9.4-2.4,10.4-7.3l18,0c-2.2,14.1-14.8,22.1-28.6,22.1c-17.4,0-29.8-12.9-29.8-29.7C489.1,39.1,501.5,26.2,518.3,26.2
		L518.3,26.2z M508.2,47.7H529c-1.4-5.3-6.2-7.2-10.3-7.2C513.7,40.5,510,43.1,508.2,47.7z"/>
	<path class="st0" d="M231,41.4v6.4h67.5v36.4h-85V70.3H281v-7.5h-67.5V27.5h85v13.9H231z"/>
</g>
</svg>
